<svg data-v-b3a1387c="" version="1.0" xmlns="http://www.w3.org/2000/svg" xmlns:xlink="http://www.w3.org/1999/xlink" preserveAspectRatio="xMidYMid meet" color-interpolation-filters="sRGB" class="img-fluid logo-white" width="220px" height="58px" style="margin: auto;"> <g data-v-b3a1387c="" fill="#0054A7" class="icon-svg-group iconsvg"><g class="iconsvg-imagesvg" transform="translate(0,0)"><rect fill="#0054A7" fill-opacity="0" stroke-width="2" x="0" y="0" width="54" height="53.98548582179829"></rect> 
    <svg x="0" y="0" width="54" height="53.98548582179829" class="imagesvg-svg"><svg xmlns="http://www.w3.org/2000/svg" viewBox="0 0 74.41 74.39"><g><path d="M67.72 28.17A32.43 32.43 0 0 0 65.17 22l1.19-8.25L60.66 8l-8.25 1.24a31.22 31.22 0 0 0-6.18-2.55L41.25 0h-8.08l-5 6.69A31.54 31.54 0 0 0 22 9.24L13.76 8 8 13.76 9.25 22a31.52 31.52 0 0 0-2.55 6.17L0 33.16v8.08l6.69 5a31.19 31.19 0 0 0 2.55 6.18L8 60.64l5.73 5.71 8.27-1.2a32.6 32.6 0 0 0 6.17 2.55l5 6.69h8.08l5-6.69a32.26 32.26 0 0 0 6.18-2.55l8.25 1.19 5.71-5.71-1.19-8.24a32.08 32.08 0 0 0 2.55-6.18l6.69-5v-8.05zM55.81 55.79A26.29 26.29 0 0 1 32.35 63l16.57-16.54a6.9 6.9 0 1 0-3.29-3.29L27.26 61.55a26.4 26.4 0 0 1-14.42-14.41l18.38-18.37a6.93 6.93 0 1 0-3.29-3.3L11.36 42.05A26.3 26.3 0 0 1 54.09 17L34.64 36.48a6.9 6.9 0 1 0 3.29 3.29l19.45-19.45a26.3 26.3 0 0 1-1.57 35.47zM50.26 38.6a2.28 2.28 0 1 1 0 3.22 2.28 2.28 0 0 1 0-3.22zM32.58 20.9a2.28 2.28 0 0 1 3.22 3.22 2.28 2.28 0 1 1-3.22-3.22zm.72 23.42a2.28 2.28 0 1 1 0-3.22 2.29 2.29 0 0 1 0 3.23z" fill="#0054A7"></path></g></svg></svg> <!----></g> <g transform="translate(61.02177047729492,1.7964954376220703)"><g class="tp-name iconsvg-namesvg" transform="translate(0.001251220703125,0)"><g><path transform="translate(-1.9244729350583,34.44)" d="M7.68-19.92C7.12-21.68 3.92-22.80 2.32-23.12C2.04-23.16 1.84-22.92 1.96-22.64C3.20-20.56 4.32-18.12 5.24-15.84C5.56-15.20 6.56-16.56 6.76-16.76C7.52-17.68 7.96-18.80 7.68-19.92ZM9.88-29.56C9.36-31.16 5.76-32.32 4.24-32.64C3.96-32.68 3.76-32.44 3.92-32.16C5.24-30.08 6.44-27.56 7.44-25.28C7.76-24.60 8.72-26 8.96-26.24C9.64-27.16 10.20-28.44 9.88-29.56ZM18.80-27.12C17.16-23.44 14.92-20.28 12.36-17.40C12.08-17.12 12.44-16.72 12.76-16.88C16.24-18.64 19.40-20.72 22.28-23.56C22.48-23.76 23.36-23.56 23.96-24.20C24.12-24.32 24.08-24.56 23.92-24.68L19.24-27.28C19.04-27.40 18.92-27.32 18.80-27.12ZM33.52-17.32C34.84-18.44 36.16-20.48 35.52-22.28C34.56-25.08 28.84-26.32 26.24-26.88C25.92-27 25.72-26.56 25.92-26.36C28.20-23.96 31.32-20.16 33.04-17.40C33.16-17.20 33.32-17.16 33.52-17.32ZM5.96 2.60C7.88 1.20 8.80-1.40 8.44-3.76C8.12-5.56 7.12-6.40 7.24-6.76L10.72-19.32C10.84-19.68 10.28-19.88 10.12-19.52L5.16-9.20C4.84-8.56 4.32-9.56 2.92-10.32C2.72-10.44 2.52-10.56 2.32-10.40C2.20-10.28 2.20-10.16 2.24-10.04C3.88-5.88 4.80-1.88 5.48 2.40C5.52 2.68 5.80 2.76 5.96 2.60ZM32.52-31.12C32.48-31 32.36-30.92 32.24-30.92L16.20-30.92C15.68-30.92 15.64-32.48 15.12-32.48C14.96-32.44 14.84-32.36 14.80-32.24C13.88-29.88 12.36-27.68 10.72-25.88C10.24-25.40 12.20-22.16 14.92-23.96C16.64-25.16 16.68-27.92 16.24-29.84C16.20-30.12 16.28-30.24 16.52-30.24L31.84-30.24C32.12-30.24 32.20-30.12 32.16-29.84L31.20-26.52C31.08-26.24 31.32-26 31.60-26.12C33.52-26.88 35.32-27.48 36.92-28.76C37.12-28.96 38.20-28.72 38.84-29.44C39-29.64 39-29.80 38.80-29.92L33.64-33.52C33.48-33.68 33.28-33.56 33.16-33.36ZM18.68-13.52C18.96-13.52 19.12-13.28 19-13.08C17.04-8.24 13.72-4 10.24-0.12C9.96 0.16 10.32 0.52 10.64 0.36C14.52-1.60 18.12-4.12 20.88-7.32C21.08-7.60 21.44-7.40 21.44-7.12L21.44 3.08C21.44 3.44 21.88 3.36 22.16 3.36C22.76 3.36 26.36 2.92 26.36 2.12L26.36-13.52L26.48-13.52C27.56-8.08 29.96-2.84 34.48 0.40C34.68 0.52 34.84 0.48 34.96 0.28C35.92-1.48 36.96-3.04 38.36-4.36C38.56-4.52 38.52-4.80 38.24-4.92C33.72-6.40 29.84-9.16 27.32-13.04C27.16-13.24 27.28-13.52 27.56-13.52L37.92-13.52C38.36-13.52 38.40-14.20 37.96-14.20L26.68-14.20C26.48-14.20 26.36-14.32 26.36-14.52C26.36-19.32 26.12-17.76 27.24-18.48C27.48-18.60 28.08-19.40 27.48-19.52L21.80-20.40C21.56-20.44 21.44-20.36 21.44-20.08L21.44-14.52C21.44-14.32 21.32-14.20 21.12-14.20L11.44-14.20C11-14.20 11-13.52 11.44-13.52ZM65.24-22.20C65.44-22.20 65.56-22.08 65.56-21.88L65.56-17.24C65.56-17.04 65.44-16.92 65.24-16.92L59.64-16.92C59.44-16.92 59.32-17.04 59.32-17.24L59.32-21.88C59.32-22.08 59.44-22.20 59.64-22.20ZM62.04-5.88C59.64-7.04 57.60-8.60 55.88-10.68C55.72-10.96 55.88-11.20 56.16-11.20L66.56-11.20C66.84-11.20 66.96-10.92 66.80-10.72C65.56-8.92 64.04-7.40 62.40-5.96C62.28-5.88 62.16-5.84 62.04-5.88ZM54.68-11.20C54.80-11.20 54.92-11.12 55-11C55.96-8.28 57.36-6 59.32-4.04C59.48-3.88 59.48-3.72 59.28-3.56C55.60-1 51.52 0.96 47.40 2.68C47.04 2.84 47.20 3.36 47.56 3.32C52.88 2.56 58.08 1.32 62.76-1.20C62.88-1.24 62.96-1.24 63.04-1.16C66.72 0.96 70.96 2.08 75.12 2.72C75.28 2.76 75.40 2.68 75.48 2.52C76.24 0.72 77.12-0.96 78.36-2.44C78.56-2.64 78.40-2.96 78.12-2.96C74.76-2.96 71.16-3.16 67.76-3.92C67.48-4.04 67.40-4.32 67.60-4.48C69.32-5.96 70.88-7.60 72.28-9.40C72.56-9.68 73.92-9.20 74.36-10.40C74.40-10.56 74.36-10.68 74.24-10.76L69.08-14.08C68.64-14.36 68.48-13.52 68.20-13.04C68.08-12.76 67.72-11.88 67.36-11.88L51.88-11.88C51.44-11.88 51.48-11.20 51.92-11.20ZM65.88-14C67.20-13.96 68.84-14.32 69.92-15.12C70.04-15.24 70.08-15.32 70.08-15.36L70.08-21.88C70.08-22.08 70.20-22.20 70.40-22.20L77.64-22.20C78.08-22.20 78.16-22.88 77.68-22.88L70.40-22.88C70.20-22.88 70.08-23 70.08-23.20C70.08-25.72 69.92-24.56 70.96-25.48C71.20-25.60 71.68-26.44 71.12-26.52L65.92-27.24C65.76-27.24 65.56-27.08 65.56-26.92L65.56-23.20C65.56-23 65.44-22.88 65.24-22.88L59.64-22.88C59.44-22.88 59.32-23 59.32-23.20C59.32-25.80 59.24-24.36 60.24-25.44C60.44-25.52 61.04-26.40 60.44-26.52L55.24-27.24C55-27.24 54.88-27.12 54.88-26.92L54.88-23.20C54.88-23 54.76-22.88 54.56-22.88L50.40-22.88C50.20-22.88 50.08-23 50.08-23.20L50.08-28.28C50.08-28.48 50.20-28.60 50.40-28.60L77.96-28.60C78.40-28.60 78.40-29.24 77.96-29.24L63.36-29.24C63.08-29.24 62.92-29.60 63.12-29.80C64.68-31.44 64-33.04 61.88-33.80C60.80-34.24 59.52-34.32 58.28-34.44C58.08-34.44 57.84-34.28 57.96-34C58.44-32.52 59.04-31.12 59.52-29.68C59.56-29.48 59.40-29.24 59.20-29.24L50.16-29.24C49.96-29.24 48.36-30.72 45.32-30.72C45.12-30.72 45-30.60 45-30.40L45.04-18.56C45.04-11.08 44.64-4.76 42.08 2.40C41.96 2.72 42.40 3 42.60 2.72C48.28-3.16 50.08-10.52 50.08-18.72L50.08-22.88C50.20-22.68 50.32-22.20 50.60-22.20L54.56-22.20C54.76-22.20 54.88-22.08 54.88-21.88L54.88-14.20C54.88-13.72 55.52-13.88 55.80-13.92C56.92-14.04 58.28-14.28 59.20-15.04C59.52-15.36 59.04-16.24 59.64-16.24L65.24-16.24C65.44-16.24 65.56-16.12 65.56-15.92L65.56-14.32C65.56-14.12 65.68-14 65.88-14ZM109.16-11.56C109.32-10 109.60-8.44 109.92-6.88C109.96-6.68 109.88-6.56 109.68-6.52L106.80-5.84C106.52-5.80 106.40-5.88 106.40-6.16L106.40-11C106.40-11.20 106.52-11.32 106.72-11.32L108.84-11.32C108.96-11.32 109.04-11.36 109.08-11.48ZM115.36-23.52C119.44-24.44 119.56-29.24 113.96-30.84C113.68-30.88 113.48-30.60 113.60-30.32C114.12-28.28 114.72-25.92 115-23.80C115-23.56 115.12-23.48 115.36-23.52ZM93.12 1.92C94.40 1.44 95.88 0.72 95.88-0.88C95.88-3.96 93.12-5.48 90.56-6.56C90.40-6.64 90.32-6.76 90.36-6.92C91.64-11.80 91.36-18.40 91.16-23.84C91.16-24.12 91.68-24.32 91.96-24.84C92.08-25 91.92-25.24 91.72-25.28L88.36-26C88.16-26.12 87.96-25.96 87.96-25.68C88.08-21.40 88.12-13.04 87.60-9.08C86.96-4.68 85.48-1.88 83.12 1.68C82.92 1.96 83.24 2.32 83.56 2.12C86.44 0.20 88.60-1.80 89.84-5.12C89.96-5.40 90.28-5.44 90.40-5.16C91.48-2.92 91.92-0.68 92.68 1.72C92.72 1.88 92.92 2.04 93.12 1.92ZM95.64-31.28C95.20-31.16 93.16-30.44 92.88-30.44L86.32-30.44L86.32-30.48C86.04-30.56 83.28-32.08 83.28-31.12L83.28-6.76C83.28-6.56 83.40-6.44 83.64-6.44C84.16-6.44 86.32-6.84 86.32-7.44L86.32-29.56C86.32-29.76 86.44-29.88 86.64-29.88L92.52-29.88C92.72-29.88 92.84-29.76 92.84-29.56L92.84-8.04C92.84-7.44 95.20-7 95.72-7C95.92-7 96.04-7.12 96.04-7.32L96.04-30.96C96.04-31.24 95.92-31.32 95.64-31.28ZM108.24-21.40C108.44-21.40 108.56-21.28 108.56-21.08C108.68-18.20 108.80-15.24 109.08-12.36C109.12-12.12 109.04-12 108.76-12L106.72-12C106.52-12 106.40-12.12 106.40-12.32L106.40-17.52C106.40-17.88 107.20-17.84 107.64-18.72C107.76-18.88 107.64-19.12 107.44-19.16L103.16-20C102.92-20.04 102.80-19.96 102.80-19.68L102.80-5.20C102.80-4.76 102.08-4.76 101.40-4.60C101.12-4.56 101-4.64 101-4.92L100.96-13.64C100.96-14.08 101.72-13.92 102.04-14.80C102.16-15.04 102.08-15.20 101.84-15.24L98.12-16.04C97.88-16.08 97.76-16 97.76-15.72L97.76-4.04C97.76-3.44 95.64-3.72 96.04-3L98.28 1.64C98.60 2.28 99.40 1.32 99.52 0.48C99.56 0.36 99.64 0.32 99.68 0.28L109.68-5.88C109.88-6 110.12-5.92 110.16-5.72C110.92-2.68 112.12 0.24 114.36 2.20C115.48 3.24 118.20 4.04 118.84 2.04C119 1.60 119 1.04 118.88 0.28C118.48-0.88 118.28-2.12 118.28-3.52C118.24-4.36 118.28-5.28 118.40-6.28C118.44-6.60 117.96-6.76 117.80-6.44L116.16-3.24C116.04-3.04 115.76-3 115.60-3.20C112.80-7.16 112.52-16.12 112.40-21.08C112.40-21.28 112.52-21.40 112.72-21.40L117.92-21.40C118.36-21.40 118.40-22.08 117.96-22.08L112.72-22.08C112.52-22.08 112.40-22.16 112.40-22.36C112.36-25.28 112.40-28.24 112.52-31.16C112.56-31.52 113.24-31.56 113.68-32.32C113.80-32.48 113.64-32.72 113.44-32.76L108.56-33.52C108.36-33.56 108.20-33.36 108.20-33.16C108.36-31.44 108.40-29.72 108.44-27.96C108.44-27.76 108.32-27.64 108.12-27.64L98.64-27.64C98.20-27.64 98.24-26.96 98.68-26.96L107.80-26.96C108.08-26.96 108.32-27.40 108.44-27.60L108.56-22.40C108.56-22.20 108.44-22.08 108.24-22.08L97.68-22.08C97.24-22.08 97.24-21.40 97.68-21.40ZM152-28.92C152.20-28.92 152.32-28.80 152.32-28.60L152.32-19.28C152.32-19.08 152.20-18.96 152-18.96L147-18.96C146.80-18.96 146.68-19.08 146.68-19.28L146.68-28.60C146.68-28.80 146.80-28.92 147-28.92ZM146.92-11.92C147.12-11.92 147.24-11.80 147.24-11.60L147.24-6.68C147.24-6.48 147.12-6.36 146.92-6.36L133.44-6.36C133.24-6.36 133.12-6.48 133.12-6.68L133.12-11.60C133.12-11.80 133.24-11.92 133.44-11.92ZM146.92-5.72C147.12-5.72 147.24-5.60 147.24-5.40L147.24-0.32C147.24-0.12 147.12 0 146.92 0L133.44 0C133.24 0 133.12-0.12 133.12-0.32L133.12-5.40C133.12-5.60 133.24-5.72 133.44-5.72ZM128.96-22.56C129.24-22.56 129.32-22.44 129.28-22.16C128.32-18.48 126.08-15.60 123.20-13C122.92-12.72 123.20-12.32 123.52-12.48C127.32-14.08 130.80-15.80 132.72-19.56C132.88-19.80 133.04-19.84 133.24-19.64C134.96-17.84 136.32-15.68 137.60-13.32C137.88-12.84 138.52-13.48 138.80-13.76C139.88-14.68 140.84-15.84 140.40-17.28C139.64-19.76 135.84-20.04 133.48-20.16C132.88-20.16 133.36-21.12 133.48-21.32C133.68-21.92 133.76-22.56 134.12-22.56L141.20-22.56C141.40-22.84 141.44-23.20 141-23.20L134.44-23.20C134.16-23.20 134.08-23.32 134.12-23.56C134.44-25.12 134.52-26.60 134.64-28.20C134.64-28.40 134.76-28.52 134.96-28.52L139.80-28.52C140-28.72 139.96-29.08 139.60-29.08L129.48-29.08C129.20-29.08 129.08-29.40 129.20-29.60C129.48-29.96 129.84-30.72 130.12-30.76C131.40-30.88 131.84-31.80 131.32-32L126.28-33.52C126.08-33.56 125.92-33.48 125.88-33.24C125.52-30.48 124.72-27.56 123.64-24.84C123.52-24.56 123.88-24.28 124.16-24.48C125.72-25.72 127.12-26.84 128.36-28.40C128.52-28.60 129.36-28.52 129.64-28.52C129.84-28.52 129.96-28.40 129.96-28.20C129.96-26.56 129.88-25 129.60-23.44C129.56-23.28 129.44-23.20 129.28-23.20L123.08-23.20C122.64-23.20 122.72-22.84 122.88-22.56ZM156.32-30.68C155.84-30.48 152.64-29.56 152.40-29.56C151.76-29.56 146.64-29.48 146.52-29.60C145.28-30.36 144.04-30.60 142.60-30.80C142.44-30.80 142.24-30.64 142.24-30.48L142.24-15.32C142.24-15.12 142.36-15 142.56-15C143.88-15 145.24-15.20 146.48-15.84C146.60-15.88 146.68-16 146.68-16.12L146.68-18.04C146.68-18.24 146.80-18.36 147-18.36L152-18.36C152.72-18.36 152-16.60 152.44-16.28C153.52-15.36 155.12-15.16 156.44-15.28C156.64-15.28 156.72-15.40 156.72-15.60L156.72-30.36C156.72-30.64 156.60-30.72 156.32-30.68ZM151.80-13.84C151.24-13.64 147.44-12.60 147.20-12.60L133.24-12.60C133.08-12.60 132.28-13.08 131.76-13.24C130.76-13.60 129.68-13.80 128.60-13.96C128.44-14 128.24-13.84 128.24-13.64L128.24 3.12C128.24 3.32 128.36 3.44 128.56 3.44C130 3.56 131.68 3.28 132.96 2.48C133.36 2.16 132.84 0.68 133.44 0.68L146.92 0.68C147.60 0.68 147 2.24 147.36 2.60C148.52 3.60 150.36 3.84 151.92 3.72C152.12 3.68 152.20 3.56 152.20 3.40L152.20-13.52C152.20-13.80 152.08-13.88 151.80-13.84Z"></path></g> <!----> <!----> <!----> <!----> <!----> <!----> <!----></g> <g class="tp-slogan iconsvg-slogansvg" fill="#333333" transform="translate(0,41.439998626708984)"><!----> <rect fill-opacity="0" x="0" height="1" y="3.9750003814697266" width="67.18553161621094"></rect> <!----> <g transform="translate(70.18553161621094,0)"><path transform="translate(-0.9375,8.8125)" d="M4.41 0L0.94 0L0.94-8.58L4.45-8.58L4.45-8.58Q7.92-8.39 8.06-4.41L8.06-4.41L8.06-4.41Q7.88-0.09 4.41 0L4.41 0ZM4.27-7.64L2.11-7.64L2.11-0.98L4.36-0.98L4.36-0.98Q6.80-1.13 6.89-4.31L6.89-4.31L6.89-4.31Q6.84-7.55 4.27-7.64L4.27-7.64ZM10.83-1.03L15.98-1.03L15.98 0L9.66 0L9.66-8.58L15.89-8.58L15.89-7.59L10.83-7.59L10.83-4.92L15.52-4.92L15.52-3.89L10.83-3.89L10.83-1.03ZM18.80-1.03L23.95-1.03L23.95 0L17.63 0L17.63-8.58L23.86-8.58L23.86-7.59L18.80-7.59L18.80-4.92L23.48-4.92L23.48-3.89L18.80-3.89L18.80-1.03ZM29.11-7.64L26.77-7.64L26.77-4.64L29.06-4.64L29.06-4.64Q30.84-4.64 30.84-6.19L30.84-6.19L30.84-6.19Q30.84-7.59 29.11-7.64L29.11-7.64ZM29.48-3.61L26.77-3.61L26.77 0L25.59 0L25.59-8.58L29.48-8.58L29.48-8.58Q31.92-8.48 32.02-6.19L32.02-6.19L32.02-6.19Q31.88-3.70 29.48-3.61L29.48-3.61ZM41.53-7.13L41.48-7.13L39.52 0L38.30 0L36.05-8.58L37.27-8.58L38.91-1.59L38.95-1.59L40.88-8.58L42.14-8.58L44.06-1.59L44.11-1.59L45.70-8.58L46.97-8.58L44.72 0L43.50 0L41.53-7.13ZM48.23-8.58L49.41-8.58L49.41 0L48.23 0L48.23-8.58ZM57.66-6.09L57.66-6.09L56.58-6.09L56.58-6.09Q56.48-7.73 54.42-7.83L54.42-7.83L54.42-7.83Q52.50-7.78 52.50-6.33L52.50-6.33L52.50-6.33Q52.50-5.39 53.53-5.25L53.53-5.25L55.97-4.69L55.97-4.69Q57.89-4.22 57.89-2.34L57.89-2.34L57.89-2.34Q57.84 0.05 54.52 0.14L54.52 0.14L54.52 0.14Q52.69 0.14 51.94-0.61L51.94-0.61L51.94-0.61Q51-1.31 51.05-2.77L51.05-2.77L52.17-2.77L52.17-2.77Q52.22-0.80 54.52-0.75L54.52-0.75L54.52-0.75Q56.77-0.80 56.81-2.20L56.81-2.20L56.81-2.20Q57-3.38 54.94-3.75L54.94-3.75L53.16-4.13L53.16-4.13Q51.33-4.64 51.33-6.19L51.33-6.19L51.33-6.19Q51.47-8.72 54.33-8.81L54.33-8.81L54.33-8.81Q57.56-8.81 57.66-6.09ZM62.86 0L59.39 0L59.39-8.58L62.91-8.58L62.91-8.58Q66.38-8.39 66.52-4.41L66.52-4.41L66.52-4.41Q66.33-0.09 62.86 0L62.86 0ZM62.72-7.64L60.56-7.64L60.56-0.98L62.81-0.98L62.81-0.98Q65.25-1.13 65.34-4.31L65.34-4.31L65.34-4.31Q65.30-7.55 62.72-7.64L62.72-7.64ZM74.77-4.27L74.77-4.27L74.77-4.27Q74.58-7.64 71.77-7.83L71.77-7.83L71.77-7.83Q68.91-7.69 68.77-4.27L68.77-4.27L68.77-4.27Q68.91-0.94 71.77-0.80L71.77-0.80L71.77-0.80Q74.58-0.98 74.77-4.27ZM75.94-4.27L75.94-4.27L75.94-4.27Q75.66 0 71.77 0.14L71.77 0.14L71.77 0.14Q67.83 0 67.55-4.27L67.55-4.27L67.55-4.27Q67.78-8.72 71.77-8.81L71.77-8.81L71.77-8.81Q75.66-8.67 75.94-4.27ZM85.55-8.58L85.55 0L84.42 0L84.42-5.06L84.42-5.06Q84.42-5.77 84.42-7.22L84.42-7.22L81.98 0L80.81 0L78.42-7.22L78.38-7.22L78.38-7.22Q78.38-6.70 78.42-5.67L78.42-5.67L78.42-5.67Q78.42-5.16 78.42-5.06L78.42-5.06L78.42 0L77.25 0L77.25-8.58L78.94-8.58L81.42-1.31L83.86-8.58L85.55-8.58Z"></path></g></g></g></g></svg>